<!-- Generated by IcoMoon.io -->
<svg version="1.1" xmlns="http://www.w3.org/2000/svg" width="31" height="32" viewBox="0 0 31 32">
<title>accept</title>
<path d="M10.392 6.165h-5.595c-0.518 0-0.938 0.42-0.938 0.938s0.42 0.938 0.938 0.938h5.595c0.518 0 0.938-0.42 0.938-0.938s-0.42-0.938-0.938-0.938z"></path>
<path d="M10.392 9.915h-5.595c-0.518 0-0.938 0.42-0.938 0.938s0.42 0.937 0.938 0.937h5.595c0.518 0 0.938-0.42 0.938-0.937s-0.42-0.938-0.938-0.938z"></path>
<path d="M10.392 13.665h-5.595c-0.518 0-0.938 0.42-0.938 0.937s0.42 0.938 0.938 0.938h5.595c0.518 0 0.938-0.42 0.938-0.938s-0.42-0.937-0.938-0.937z"></path>
<path d="M10.392 17.416h-5.595c-0.518 0-0.938 0.42-0.938 0.938s0.42 0.937 0.938 0.937h5.595c0.518 0 0.938-0.42 0.938-0.937s-0.42-0.938-0.938-0.938z"></path>
<path d="M10.392 21.228h-5.595c-0.518 0-0.938 0.42-0.938 0.937s0.42 0.938 0.938 0.938h5.595c0.518 0 0.938-0.42 0.938-0.938s-0.42-0.937-0.938-0.937z"></path>
<path d="M13.541 8.040h5.595c0.518 0 0.937-0.42 0.937-0.938s-0.42-0.938-0.937-0.938h-5.595c-0.518 0-0.938 0.42-0.938 0.938s0.42 0.938 0.938 0.938z"></path>
<path d="M13.541 11.79h5.595c0.518 0 0.937-0.42 0.937-0.937s-0.42-0.938-0.937-0.938h-5.595c-0.518 0-0.938 0.42-0.938 0.938s0.42 0.937 0.938 0.937z"></path>
<path d="M17.173 14.603c0-0.518-0.42-0.937-0.938-0.937h-2.695c-0.518 0-0.938 0.42-0.938 0.937s0.42 0.938 0.938 0.938h2.695c0.518 0 0.938-0.42 0.938-0.938z"></path>
<path d="M26.054 21.624c-0.404-0.324-0.994-0.259-1.318 0.145l-2.415 3.010-1.495-1.083c-0.419-0.304-1.006-0.21-1.309 0.209s-0.21 1.006 0.209 1.309l2.218 1.607c0.166 0.12 0.358 0.178 0.55 0.178 0.275 0 0.547-0.121 0.732-0.351l2.973-3.706c0.324-0.404 0.259-0.994-0.145-1.318z"></path>
<path d="M28.424 18.746c-1.221-1.243-2.79-2.026-4.49-2.257v-12.714c0-2.082-1.694-3.776-3.776-3.776h-16.382c-2.082 0-3.776 1.694-3.776 3.776v21.717c0 2.082 1.694 3.776 3.776 3.776h13.176c1.483 1.742 3.615 2.731 5.921 2.731 4.293 0 7.786-3.495 7.786-7.791 0-2.057-0.793-3.997-2.234-5.462v0zM1.875 25.493v-21.717c0-1.048 0.853-1.901 1.901-1.901h16.382c1.048 0 1.901 0.853 1.901 1.901v12.684c-3.912 0.409-6.972 3.728-6.972 7.749 0 1.115 0.232 2.192 0.678 3.185h-11.989c-1.048 0-1.901-0.852-1.901-1.901zM22.873 30.125c-1.872 0-3.594-0.86-4.723-2.358-0.777-1.032-1.188-2.262-1.188-3.558 0-3.262 2.652-5.916 5.911-5.916 0.031 0 0.062 0 0.093 0.001l0.014 0c1.556 0.028 3.015 0.655 4.107 1.767 1.094 1.113 1.697 2.586 1.697 4.148 0 3.262-2.652 5.916-5.911 5.916v0z"></path>
</svg>
