<!-- Generated by IcoMoon.io -->
<svg version="1.1" xmlns="http://www.w3.org/2000/svg" width="32" height="32" viewBox="0 0 32 32">
<title>auction</title>
<path d="M7.361 10.897c-0.244-0.244-0.64-0.244-0.884 0s-0.244 0.64 0 0.884c0.244 0.244 0.64 0.244 0.884 0s0.244-0.639 0-0.884z"></path>
<path d="M15.825 27.982c0.276-0.373 0.424-0.823 0.424-1.296 0-1.206-0.981-2.187-2.187-2.187h-10.625c-0.585 0-1.134 0.227-1.547 0.641s-0.641 0.962-0.641 1.547c0 0.484 0.159 0.932 0.426 1.295-0.995 0.523-1.676 1.567-1.676 2.767v0.625c0 0.345 0.28 0.625 0.625 0.625h16.249c0.345 0 0.625-0.28 0.625-0.625v-0.625c0-1.2-0.68-2.243-1.674-2.767zM2.774 26.023c0.177-0.177 0.412-0.274 0.663-0.274h10.625c0.517 0 0.937 0.421 0.937 0.937 0 0.251-0.098 0.486-0.274 0.663s-0.412 0.274-0.663 0.274h-10.625c-0.517 0-0.937-0.421-0.937-0.937 0-0.251 0.097-0.486 0.274-0.663zM1.25 30.749c0-1.034 0.841-1.875 1.875-1.875h11.25c1.034 0 1.875 0.841 1.875 1.875h-14.999z"></path>
<path d="M31.42 26.258c-0.212-0.329-0.465-0.62-0.753-0.865l-2.92-2.547c-0.023-0.034-0.049-0.067-0.079-0.097-0.051-0.051-0.108-0.090-0.169-0.12l-9.94-8.671c0.335-0.35 0.519-0.807 0.519-1.294 0-0.501-0.195-0.972-0.55-1.327-0.155-0.154-0.33-0.276-0.518-0.365l0.756-0.756c0.211 0.056 0.429 0.085 0.646 0.085 0.64-0 1.28-0.244 1.767-0.731 0.472-0.472 0.733-1.1 0.733-1.768s-0.26-1.295-0.732-1.768l-5.303-5.303c-0.472-0.472-1.1-0.732-1.768-0.732s-1.295 0.26-1.768 0.732c-0.653 0.653-0.868 1.58-0.646 2.413l-7.545 7.545c-0.208-0.055-0.425-0.085-0.647-0.085-0.668 0-1.296 0.26-1.768 0.732-0.975 0.975-0.975 2.561 0 3.536l5.303 5.303c0.487 0.487 1.128 0.731 1.768 0.731s1.28-0.244 1.768-0.731c0.653-0.653 0.868-1.58 0.646-2.413l0.755-0.755c0.091 0.189 0.214 0.364 0.367 0.517 0.354 0.354 0.825 0.549 1.326 0.549 0.486 0 0.943-0.184 1.293-0.518l8.707 10.003c0.024 0.038 0.052 0.073 0.085 0.106 0.011 0.011 0.023 0.021 0.035 0.032l2.594 2.981c0.065 0.076 0.133 0.151 0.205 0.223 0.712 0.712 1.654 1.099 2.642 1.099 0.174 0 0.35-0.012 0.526-0.036 1.177-0.163 2.194-0.867 2.79-1.932 0.653-1.167 0.605-2.649-0.123-3.774zM12.224 1.616c0.236-0.236 0.55-0.366 0.884-0.366s0.648 0.13 0.884 0.366l5.303 5.303c0.236 0.236 0.366 0.55 0.366 0.884s-0.13 0.648-0.366 0.884c-0.487 0.487-1.28 0.487-1.767 0l-5.303-5.303c-0-0-0-0-0-0-0.487-0.487-0.487-1.28 0-1.767zM8.689 19.293c-0.487 0.487-1.281 0.487-1.768 0l-5.303-5.303c-0.487-0.487-0.487-1.28 0-1.768 0.236-0.236 0.55-0.366 0.884-0.366s0.648 0.13 0.883 0.365l5.304 5.304c0.487 0.487 0.487 1.28 0 1.767zM11.32 14.894l-1.748 1.748-5.304-5.303 7.071-7.071 5.303 5.304-1.751 1.751c-0.006 0.005-0.011 0.011-0.017 0.017l-3.534 3.534c-0.007 0.007-0.014 0.015-0.022 0.022zM13.552 16.198c-0.001 0.001-0.002 0.002-0.004 0.004l-0.44 0.44c-0.118 0.118-0.275 0.183-0.442 0.183s-0.324-0.065-0.442-0.183c-0.118-0.118-0.183-0.275-0.183-0.442 0-0.164 0.062-0.318 0.176-0.434l3.55-3.55c0.243-0.237 0.637-0.234 0.877 0.007 0.118 0.118 0.183 0.275 0.183 0.442s-0.065 0.324-0.183 0.442l-0.438 0.438c-0.003 0.003-0.006 0.006-0.009 0.009l-2.645 2.645zM14.846 16.672l1.827-1.827 7.734 6.746-2.822 2.822-6.738-7.741zM22.407 25.358l2.944-2.944 0.944 0.824-3.065 3.065-0.823-0.945zM30.453 29.421c-0.403 0.72-1.085 1.196-1.871 1.304-0.784 0.108-1.554-0.15-2.113-0.708-0.048-0.048-0.094-0.098-0.137-0.149-0.002-0.002-0.004-0.005-0.006-0.007l-2.274-2.613 3.187-3.187 2.609 2.276c0.002 0.002 0.004 0.003 0.006 0.005 0.195 0.166 0.369 0.365 0.516 0.593 0.473 0.73 0.506 1.729 0.083 2.485z"></path>
<path d="M11.781 6.477c-0.244-0.244-0.64-0.244-0.884 0l-2.652 2.652c-0.244 0.244-0.244 0.64 0 0.884 0.122 0.122 0.282 0.183 0.442 0.183s0.32-0.061 0.442-0.183l2.652-2.652c0.244-0.244 0.244-0.64 0-0.884z"></path>
</svg>
