<!-- Generated by IcoMoon.io -->
<svg version="1.1" xmlns="http://www.w3.org/2000/svg" width="38" height="32" viewBox="0 0 38 32">
<title>balance</title>
<path d="M20.585 28.524h-3.216c-0.143 0-0.281-0.056-0.382-0.157s-0.158-0.236-0.158-0.378v-25.83c0-0.564 0.226-1.105 0.629-1.504s0.949-0.623 1.519-0.623c0.57 0 1.116 0.224 1.519 0.623s0.629 0.94 0.629 1.504v25.831c-0 0.142-0.057 0.278-0.158 0.378s-0.239 0.156-0.382 0.156v0zM17.909 27.455h2.135v-25.295c0-0.28-0.113-0.549-0.313-0.747s-0.472-0.31-0.755-0.31-0.555 0.111-0.755 0.309c-0.2 0.198-0.313 0.467-0.313 0.747v25.295z"></path>
<path d="M5.955 7.203h-1.855c-0.44-0.008-0.86-0.186-1.168-0.497s-0.481-0.729-0.481-1.165c0-0.436 0.173-0.854 0.481-1.165s0.728-0.489 1.168-0.497h1.592c0.143 0 0.281 0.056 0.382 0.157s0.158 0.236 0.158 0.378c0 0.142-0.057 0.278-0.158 0.378s-0.239 0.157-0.382 0.157h-1.592c-0.156 0.005-0.303 0.069-0.412 0.18s-0.169 0.259-0.169 0.413c0 0.154 0.061 0.302 0.169 0.413s0.256 0.175 0.412 0.18h1.855c0.143 0 0.281 0.056 0.382 0.157s0.158 0.236 0.158 0.378c0 0.142-0.057 0.278-0.158 0.378s-0.239 0.157-0.382 0.157z"></path>
<path d="M17.369 7.203h-8.145c-0.143 0-0.281-0.056-0.382-0.157s-0.158-0.236-0.158-0.378 0.057-0.278 0.158-0.378c0.101-0.1 0.239-0.157 0.382-0.157h7.605v-1.185h-7.342c-0.143 0-0.281-0.056-0.382-0.157s-0.158-0.236-0.158-0.378c0-0.142 0.057-0.278 0.158-0.378s0.239-0.157 0.382-0.157h7.883c0.143 0 0.281 0.056 0.382 0.157s0.158 0.236 0.158 0.378v2.254c0 0.142-0.057 0.278-0.158 0.378s-0.239 0.157-0.382 0.157z"></path>
<path d="M28.612 7.203h-8.028c-0.143 0-0.281-0.056-0.382-0.157s-0.158-0.236-0.158-0.378v-2.254c0-0.142 0.057-0.278 0.158-0.378s0.239-0.157 0.382-0.157h7.765c0.143 0 0.281 0.056 0.382 0.157s0.158 0.236 0.158 0.378-0.057 0.278-0.158 0.378c-0.101 0.1-0.239 0.157-0.382 0.157h-7.225v1.185h7.487c0.143 0 0.281 0.056 0.382 0.157s0.158 0.236 0.158 0.378c0 0.142-0.057 0.278-0.158 0.378s-0.239 0.157-0.382 0.157z"></path>
<path d="M33.848 7.203h-1.85c-0.143 0-0.281-0.056-0.382-0.157s-0.158-0.236-0.158-0.378 0.057-0.278 0.158-0.378c0.101-0.1 0.239-0.157 0.382-0.157h1.85c0.156-0.005 0.303-0.069 0.412-0.18s0.169-0.259 0.169-0.413c0-0.154-0.061-0.302-0.169-0.413s-0.256-0.175-0.412-0.18h-1.583c-0.143 0-0.281-0.056-0.382-0.157s-0.158-0.236-0.158-0.378 0.057-0.278 0.158-0.378c0.101-0.1 0.239-0.157 0.382-0.157h1.583c0.44 0.008 0.86 0.186 1.168 0.497s0.481 0.729 0.481 1.165-0.173 0.854-0.481 1.165c-0.308 0.311-0.728 0.489-1.168 0.497z"></path>
<path d="M25.82 31.966h-13.686c-0.082 0-0.163-0.019-0.237-0.054s-0.138-0.087-0.189-0.151c-0.050-0.064-0.086-0.138-0.103-0.218s-0.016-0.162 0.004-0.24c0.223-1.058 0.796-2.011 1.63-2.709s1.879-1.1 2.969-1.142h5.536c1.091 0.042 2.136 0.444 2.969 1.142s1.407 1.651 1.63 2.709c0.020 0.079 0.021 0.161 0.004 0.24s-0.052 0.154-0.103 0.218c-0.050 0.064-0.115 0.116-0.189 0.151s-0.155 0.054-0.237 0.054v0zM12.881 30.897h12.192c-0.257-0.676-0.71-1.261-1.302-1.683s-1.297-0.662-2.026-0.689h-5.536c-0.729 0.027-1.434 0.267-2.026 0.689s-1.045 1.008-1.302 1.683z"></path>
<path d="M27.283 31.966h-16.613c-0.143 0-0.281-0.056-0.382-0.157s-0.158-0.236-0.158-0.378 0.057-0.278 0.158-0.378c0.101-0.1 0.239-0.157 0.382-0.157h16.613c0.143 0 0.281 0.056 0.382 0.157s0.158 0.236 0.158 0.378-0.057 0.278-0.158 0.378c-0.101 0.1-0.239 0.157-0.382 0.157z"></path>
<path d="M37.348 20.612h-13.963c-0.090 0-0.179-0.022-0.259-0.065s-0.147-0.105-0.196-0.18c-0.049-0.075-0.078-0.162-0.085-0.251s0.010-0.179 0.047-0.26l5.933-12.928c0.029-0.064 0.071-0.122 0.123-0.17s0.113-0.086 0.179-0.111c0.066-0.025 0.137-0.036 0.208-0.034s0.141 0.019 0.206 0.048c0.065 0.029 0.123 0.071 0.171 0.122s0.086 0.112 0.111 0.178c0.025 0.066 0.036 0.136 0.034 0.206s-0.019 0.139-0.049 0.203l-5.586 12.172h12.283l-5.581-12.172c-0.029-0.064-0.046-0.133-0.048-0.203s0.009-0.14 0.034-0.206c0.025-0.066 0.063-0.126 0.111-0.177s0.107-0.093 0.171-0.122c0.065-0.029 0.134-0.045 0.205-0.047s0.142 0.009 0.208 0.034c0.066 0.025 0.127 0.062 0.179 0.11s0.094 0.106 0.123 0.17l5.927 12.928c0.037 0.081 0.053 0.171 0.047 0.259s-0.035 0.175-0.084 0.25-0.115 0.137-0.195 0.18c-0.079 0.043-0.168 0.066-0.258 0.066v0z"></path>
<path d="M30.422 27.433h-0.112c-4.326 0-7.467-3.093-7.467-7.356 0-0.142 0.057-0.278 0.158-0.378s0.239-0.157 0.382-0.157h13.965c0.143 0 0.281 0.056 0.382 0.157s0.158 0.236 0.158 0.378c0 4.265-3.14 7.356-7.466 7.356zM23.942 20.612c0.241 3.413 2.791 5.751 6.367 5.751h0.112c3.576 0 6.126-2.338 6.367-5.751h-12.846z"></path>
<path d="M30.366 7.965c-0.525 0-1.039-0.154-1.476-0.443s-0.777-0.699-0.979-1.18c-0.201-0.48-0.254-1.009-0.151-1.519s0.355-0.979 0.727-1.346c0.372-0.368 0.845-0.618 1.36-0.72s1.049-0.049 1.535 0.15c0.485 0.199 0.9 0.536 1.192 0.969s0.448 0.941 0.447 1.461c-0.001 0.697-0.281 1.365-0.779 1.858s-1.173 0.77-1.877 0.771v0zM30.366 3.777c-0.312-0-0.616 0.091-0.875 0.263s-0.461 0.415-0.581 0.7c-0.119 0.285-0.151 0.598-0.090 0.901s0.211 0.58 0.431 0.799c0.22 0.218 0.501 0.367 0.807 0.427s0.622 0.029 0.91-0.089c0.288-0.118 0.534-0.318 0.707-0.574s0.266-0.558 0.266-0.866c-0-0.413-0.167-0.81-0.462-1.102s-0.696-0.457-1.113-0.457z"></path>
<path d="M14.568 20.612h-13.962c-0.090 0-0.179-0.023-0.259-0.065s-0.147-0.105-0.196-0.18c-0.049-0.075-0.078-0.162-0.085-0.251s0.010-0.179 0.047-0.26l5.934-12.928c0.059-0.129 0.168-0.23 0.302-0.28s0.283-0.045 0.413 0.014c0.131 0.059 0.232 0.166 0.283 0.299s0.045 0.28-0.014 0.409l-5.586 12.172h12.283l-5.581-12.172c-0.031-0.064-0.049-0.134-0.052-0.205s0.007-0.142 0.032-0.209c0.025-0.067 0.063-0.128 0.111-0.18s0.108-0.094 0.173-0.124c0.066-0.029 0.136-0.046 0.208-0.048s0.143 0.010 0.21 0.036 0.128 0.064 0.18 0.114c0.052 0.049 0.093 0.109 0.121 0.174l5.927 12.928c0.037 0.081 0.053 0.171 0.047 0.26s-0.036 0.175-0.085 0.251c-0.049 0.075-0.116 0.137-0.196 0.18s-0.168 0.065-0.259 0.065v0z"></path>
<path d="M7.644 27.433h-0.112c-4.326 0-7.466-3.091-7.466-7.356 0-0.142 0.057-0.278 0.158-0.378s0.239-0.157 0.382-0.157h13.965c0.143 0 0.281 0.056 0.382 0.157s0.158 0.236 0.158 0.378c0 4.265-3.14 7.356-7.467 7.356v0zM1.165 20.612c0.24 3.413 2.791 5.751 6.367 5.751h0.112c3.576 0 6.126-2.338 6.367-5.751h-12.846z"></path>
<path d="M7.588 7.965c-0.525 0-1.039-0.154-1.476-0.443s-0.777-0.7-0.978-1.18-0.254-1.009-0.151-1.519c0.103-0.51 0.356-0.978 0.727-1.346s0.845-0.618 1.36-0.719c0.515-0.101 1.049-0.049 1.535 0.15s0.9 0.536 1.192 0.969c0.292 0.432 0.447 0.941 0.447 1.461-0.001 0.697-0.281 1.365-0.779 1.858s-1.173 0.77-1.877 0.771v0zM7.588 3.777c-0.312 0-0.616 0.091-0.875 0.263s-0.461 0.415-0.58 0.7c-0.119 0.285-0.15 0.598-0.090 0.901s0.211 0.58 0.431 0.798c0.22 0.218 0.501 0.367 0.807 0.427s0.622 0.029 0.91-0.089c0.288-0.118 0.534-0.318 0.707-0.574s0.266-0.558 0.266-0.866c-0-0.413-0.167-0.81-0.462-1.102s-0.696-0.457-1.114-0.457v0z"></path>
</svg>
