<svg style="display: none;" aria-hidden="true" xmlns="http://www.w3.org/2000/svg" xmlns:xlink="http://www.w3.org/1999/xlink"><symbol viewBox="0 0 31 32" id="svg-accept"><path d="M10.392 6.165h-5.595c-.518 0-.938.42-.938.938s.42.938.938.938h5.595c.518 0 .938-.42.938-.938s-.42-.938-.938-.938zM10.392 9.915h-5.595c-.518 0-.938.42-.938.938s.42.937.938.937h5.595c.518 0 .938-.42.938-.937s-.42-.938-.938-.938zM10.392 13.665h-5.595c-.518 0-.938.42-.938.937s.42.938.938.938h5.595c.518 0 .938-.42.938-.938s-.42-.937-.938-.937zM10.392 17.416h-5.595c-.518 0-.938.42-.938.938s.42.937.938.937h5.595c.518 0 .938-.42.938-.937s-.42-.938-.938-.938zM10.392 21.228h-5.595c-.518 0-.938.42-.938.937s.42.938.938.938h5.595c.518 0 .938-.42.938-.938s-.42-.937-.938-.937zM13.541 8.04h5.595c.518 0 .937-.42.937-.938s-.42-.938-.937-.938h-5.595c-.518 0-.938.42-.938.938s.42.938.938.938zM13.541 11.79h5.595c.518 0 .937-.42.937-.937s-.42-.938-.937-.938h-5.595c-.518 0-.938.42-.938.938s.42.937.938.937zM17.173 14.603c0-.518-.42-.937-.938-.937h-2.695c-.518 0-.938.42-.938.937s.42.938.938.938h2.695c.518 0 .938-.42.938-.938zM26.054 21.624c-.404-.324-.994-.259-1.318.145l-2.415 3.01-1.495-1.083c-.419-.304-1.006-.21-1.309.209s-.21 1.006.209 1.309l2.218 1.607c.166.12.358.178.55.178.275 0 .547-.121.732-.351l2.973-3.706c.324-.404.259-.994-.145-1.318z"/><path d="M28.424 18.746c-1.221-1.243-2.79-2.026-4.49-2.257v-12.714c0-2.082-1.694-3.776-3.776-3.776h-16.382c-2.082 0-3.776 1.694-3.776 3.776v21.717c0 2.082 1.694 3.776 3.776 3.776h13.176c1.483 1.742 3.615 2.731 5.921 2.731 4.293 0 7.786-3.495 7.786-7.791 0-2.057-0.793-3.997-2.234-5.462v0zM1.875 25.493v-21.717c0-1.048 0.853-1.901 1.901-1.901h16.382c1.048 0 1.901 0.853 1.901 1.901v12.684c-3.912 0.409-6.972 3.728-6.972 7.749 0 1.115 0.232 2.192 0.678 3.185h-11.989c-1.048 0-1.901-0.852-1.901-1.901zM22.873 30.125c-1.872 0-3.594-0.86-4.723-2.358-0.777-1.032-1.188-2.262-1.188-3.558 0-3.262 2.652-5.916 5.911-5.916 0.031 0 0.062 0 0.093 0.001l0.014 0c1.556 0.028 3.015 0.655 4.107 1.767 1.094 1.113 1.697 2.586 1.697 4.148 0 3.262-2.652 5.916-5.911 5.916v0z"/></symbol><symbol viewBox="0 0 32 32" id="svg-auction"><path d="M7.361 10.897c-.244-.244-.64-.244-.884 0s-.244.64 0 .884c.244.244.64.244.884 0s.244-.639 0-.884zM15.825 27.982c.276-.373.424-.823.424-1.296 0-1.206-.981-2.187-2.187-2.187h-10.625c-.585 0-1.134.227-1.547.641s-.641.962-.641 1.547c0 .484.159.932.426 1.295-.995.523-1.676 1.567-1.676 2.767v.625c0 .345.28.625.625.625h16.249c.345 0 .625-.28.625-.625v-.625c0-1.2-.68-2.243-1.674-2.767zM2.774 26.023c.177-.177.412-.274.663-.274h10.625c.517 0 .937.421.937.937 0 .251-.098.486-.274.663s-.412.274-.663.274h-10.625c-.517 0-.937-.421-.937-.937 0-.251.097-.486.274-.663zM1.25 30.749c0-1.034.841-1.875 1.875-1.875h11.25c1.034 0 1.875.841 1.875 1.875h-14.999z"/><path d="M31.42 26.258c-0.212-0.329-0.465-0.62-0.753-0.865l-2.92-2.547c-0.023-0.034-0.049-0.067-0.079-0.097-0.051-0.051-0.108-0.090-0.169-0.12l-9.94-8.671c0.335-0.35 0.519-0.807 0.519-1.294 0-0.501-0.195-0.972-0.55-1.327-0.155-0.154-0.33-0.276-0.518-0.365l0.756-0.756c0.211 0.056 0.429 0.085 0.646 0.085 0.64-0 1.28-0.244 1.767-0.731 0.472-0.472 0.733-1.1 0.733-1.768s-0.26-1.295-0.732-1.768l-5.303-5.303c-0.472-0.472-1.1-0.732-1.768-0.732s-1.295 0.26-1.768 0.732c-0.653 0.653-0.868 1.58-0.646 2.413l-7.545 7.545c-0.208-0.055-0.425-0.085-0.647-0.085-0.668 0-1.296 0.26-1.768 0.732-0.975 0.975-0.975 2.561 0 3.536l5.303 5.303c0.487 0.487 1.128 0.731 1.768 0.731s1.28-0.244 1.768-0.731c0.653-0.653 0.868-1.58 0.646-2.413l0.755-0.755c0.091 0.189 0.214 0.364 0.367 0.517 0.354 0.354 0.825 0.549 1.326 0.549 0.486 0 0.943-0.184 1.293-0.518l8.707 10.003c0.024 0.038 0.052 0.073 0.085 0.106 0.011 0.011 0.023 0.021 0.035 0.032l2.594 2.981c0.065 0.076 0.133 0.151 0.205 0.223 0.712 0.712 1.654 1.099 2.642 1.099 0.174 0 0.35-0.012 0.526-0.036 1.177-0.163 2.194-0.867 2.79-1.932 0.653-1.167 0.605-2.649-0.123-3.774zM12.224 1.616c0.236-0.236 0.55-0.366 0.884-0.366s0.648 0.13 0.884 0.366l5.303 5.303c0.236 0.236 0.366 0.55 0.366 0.884s-0.13 0.648-0.366 0.884c-0.487 0.487-1.28 0.487-1.767 0l-5.303-5.303c-0-0-0-0-0-0-0.487-0.487-0.487-1.28 0-1.767zM8.689 19.293c-0.487 0.487-1.281 0.487-1.768 0l-5.303-5.303c-0.487-0.487-0.487-1.28 0-1.768 0.236-0.236 0.55-0.366 0.884-0.366s0.648 0.13 0.883 0.365l5.304 5.304c0.487 0.487 0.487 1.28 0 1.767zM11.32 14.894l-1.748 1.748-5.304-5.303 7.071-7.071 5.303 5.304-1.751 1.751c-0.006 0.005-0.011 0.011-0.017 0.017l-3.534 3.534c-0.007 0.007-0.014 0.015-0.022 0.022zM13.552 16.198c-0.001 0.001-0.002 0.002-0.004 0.004l-0.44 0.44c-0.118 0.118-0.275 0.183-0.442 0.183s-0.324-0.065-0.442-0.183c-0.118-0.118-0.183-0.275-0.183-0.442 0-0.164 0.062-0.318 0.176-0.434l3.55-3.55c0.243-0.237 0.637-0.234 0.877 0.007 0.118 0.118 0.183 0.275 0.183 0.442s-0.065 0.324-0.183 0.442l-0.438 0.438c-0.003 0.003-0.006 0.006-0.009 0.009l-2.645 2.645zM14.846 16.672l1.827-1.827 7.734 6.746-2.822 2.822-6.738-7.741zM22.407 25.358l2.944-2.944 0.944 0.824-3.065 3.065-0.823-0.945zM30.453 29.421c-0.403 0.72-1.085 1.196-1.871 1.304-0.784 0.108-1.554-0.15-2.113-0.708-0.048-0.048-0.094-0.098-0.137-0.149-0.002-0.002-0.004-0.005-0.006-0.007l-2.274-2.613 3.187-3.187 2.609 2.276c0.002 0.002 0.004 0.003 0.006 0.005 0.195 0.166 0.369 0.365 0.516 0.593 0.473 0.73 0.506 1.729 0.083 2.485z"/><path d="M11.781 6.477c-0.244-0.244-0.64-0.244-0.884 0l-2.652 2.652c-0.244 0.244-0.244 0.64 0 0.884 0.122 0.122 0.282 0.183 0.442 0.183s0.32-0.061 0.442-0.183l2.652-2.652c0.244-0.244 0.244-0.64 0-0.884z"/></symbol><symbol viewBox="0 0 38 32" id="svg-balance"><path d="M20.585 28.524h-3.216c-.143 0-.281-.056-.382-.157s-.158-.236-.158-.378v-25.83c0-.564.226-1.105.629-1.504s.949-.623 1.519-.623c.57 0 1.116.224 1.519.623s.629.94.629 1.504v25.831c0 .142-.057.278-.158.378s-.239.156-.382.156v0zM17.909 27.455h2.135v-25.295c0-.28-.113-.549-.313-.747s-.472-.31-.755-.31-.555.111-.755.309c-.2.198-.313.467-.313.747v25.295zM5.955 7.203h-1.855c-.44-.008-.86-.186-1.168-.497s-.481-.729-.481-1.165c0-.436.173-.854.481-1.165s.728-.489 1.168-.497h1.592c.143 0 .281.056.382.157s.158.236.158.378c0 .142-.057.278-.158.378s-.239.157-.382.157h-1.592c-.156.005-.303.069-.412.18s-.169.259-.169.413c0 .154.061.302.169.413s.256.175.412.18h1.855c.143 0 .281.056.382.157s.158.236.158.378c0 .142-.057.278-.158.378s-.239.157-.382.157z"/><path d="M17.369 7.203h-8.145c-.143 0-.281-.056-.382-.157s-.158-.236-.158-.378.057-.278.158-.378c.101-.1.239-.157.382-.157h7.605v-1.185h-7.342c-.143 0-.281-.056-.382-.157s-.158-.236-.158-.378c0-.142.057-.278.158-.378s.239-.157.382-.157h7.883c.143 0 .281.056.382.157s.158.236.158.378v2.254c0 .142-.057.278-.158.378s-.239.157-.382.157zM28.612 7.203h-8.028c-.143 0-.281-.056-.382-.157s-.158-.236-.158-.378v-2.254c0-.142.057-.278.158-.378s.239-.157.382-.157h7.765c.143 0 .281.056.382.157s.158.236.158.378-.057.278-.158.378c-.101.1-.239.157-.382.157h-7.225v1.185h7.487c.143 0 .281.056.382.157s.158.236.158.378c0 .142-.057.278-.158.378s-.239.157-.382.157zM33.848 7.203h-1.85c-.143 0-.281-.056-.382-.157s-.158-.236-.158-.378.057-.278.158-.378c.101-.1.239-.157.382-.157h1.85c.156-.005.303-.069.412-.18s.169-.259.169-.413c0-.154-.061-.302-.169-.413s-.256-.175-.412-.18h-1.583c-.143 0-.281-.056-.382-.157s-.158-.236-.158-.378.057-.278.158-.378c.101-.1.239-.157.382-.157h1.583c.44.008.86.186 1.168.497s.481.729.481 1.165-.173.854-.481 1.165c-.308.311-.728.489-1.168.497zM25.82 31.966h-13.686c-.082 0-.163-.019-.237-.054s-.138-.087-.189-.151c-.05-.064-.086-.138-.103-.218s-.016-.162.004-.24c.223-1.058.796-2.011 1.63-2.709s1.879-1.1 2.969-1.142h5.536c1.091.042 2.136.444 2.969 1.142s1.407 1.651 1.63 2.709c.02.079.021.161.004.24s-.052.154-.103.218c-.05.064-.115.116-.189.151s-.155.054-.237.054v0zM12.881 30.897h12.192c-.257-.676-.71-1.261-1.302-1.683s-1.297-.662-2.026-.689h-5.536c-.729.027-1.434.267-2.026.689s-1.045 1.008-1.302 1.683z"/><path d="M27.283 31.966h-16.613c-.143 0-.281-.056-.382-.157s-.158-.236-.158-.378.057-.278.158-.378c.101-.1.239-.157.382-.157h16.613c.143 0 .281.056.382.157s.158.236.158.378-.057.278-.158.378c-.101.1-.239.157-.382.157zM37.348 20.612h-13.963c-.09 0-.179-.022-.259-.065s-.147-.105-.196-.18c-.049-.075-.078-.162-.085-.251s.01-.179.047-.26l5.933-12.928c.029-.064.071-.122.123-.17s.113-.086.179-.111c.066-.025.137-.036.208-.034s.141.019.206.048c.065.029.123.071.171.122s.086.112.111.178c.025.066.036.136.034.206s-.019.139-.049.203l-5.586 12.172h12.283l-5.581-12.172c-.029-.064-.046-.133-.048-.203s.009-.14.034-.206c.025-.066.063-.126.111-.177s.107-.093.171-.122c.065-.029.134-.045.205-.047s.142.009.208.034c.066.025.127.062.179.11s.094.106.123.17l5.927 12.928c.037.081.053.171.047.259s-.035.175-.084.25-.115.137-.195.18c-.079.043-.168.066-.258.066v0z"/><path d="M30.422 27.433h-.112c-4.326 0-7.467-3.093-7.467-7.356 0-.142.057-.278.158-.378s.239-.157.382-.157h13.965c.143 0 .281.056.382.157s.158.236.158.378c0 4.265-3.14 7.356-7.466 7.356zM23.942 20.612c.241 3.413 2.791 5.751 6.367 5.751h.112c3.576 0 6.126-2.338 6.367-5.751h-12.846zM30.366 7.965c-.525 0-1.039-.154-1.476-.443s-.777-.699-.979-1.18c-.201-.48-.254-1.009-.151-1.519s.355-.979.727-1.346c.372-.368.845-.618 1.36-.72s1.049-.049 1.535.15c.485.199.9.536 1.192.969s.448.941.447 1.461c-.001.697-.281 1.365-.779 1.858s-1.173.77-1.877.771v0zM30.366 3.777c-.312 0-.616.091-.875.263s-.461.415-.581.7c-.119.285-.151.598-.09.901s.211.58.431.799c.22.218.501.367.807.427s.622.029.91-.089c.288-.118.534-.318.707-.574s.266-.558.266-.866c0-.413-.167-.81-.462-1.102s-.696-.457-1.113-.457zM14.568 20.612h-13.962c-.09 0-.179-.023-.259-.065s-.147-.105-.196-.18c-.049-.075-.078-.162-.085-.251s.01-.179.047-.26l5.934-12.928c.059-.129.168-.23.302-.28s.283-.045.413.014c.131.059.232.166.283.299s.045.28-.014.409l-5.586 12.172h12.283l-5.581-12.172c-.031-.064-.049-.134-.052-.205s.007-.142.032-.209c.025-.067.063-.128.111-.18s.108-.094.173-.124c.066-.029.136-.046.208-.048s.143.01.21.036.128.064.18.114c.052.049.093.109.121.174l5.927 12.928c.037.081.053.171.047.26s-.036.175-.085.251c-.049.075-.116.137-.196.18s-.168.065-.259.065v0z"/><path d="M7.644 27.433h-.112c-4.326 0-7.466-3.091-7.466-7.356 0-.142.057-.278.158-.378s.239-.157.382-.157h13.965c.143 0 .281.056.382.157s.158.236.158.378c0 4.265-3.14 7.356-7.467 7.356v0zM1.165 20.612c.24 3.413 2.791 5.751 6.367 5.751h.112c3.576 0 6.126-2.338 6.367-5.751h-12.846zM7.588 7.965c-.525 0-1.039-.154-1.476-.443s-.777-.7-.978-1.18-.254-1.009-.151-1.519c.103-.51.356-.978.727-1.346s.845-.618 1.36-.719c.515-.101 1.049-.049 1.535.15s.9.536 1.192.969c.292.432.447.941.447 1.461-.001.697-.281 1.365-.779 1.858s-1.173.77-1.877.771v0zM7.588 3.777c-.312 0-.616.091-.875.263s-.461.415-.58.7c-.119.285-.15.598-.09.901s.211.58.431.798c.22.218.501.367.807.427s.622.029.91-.089c.288-.118.534-.318.707-.574s.266-.558.266-.866c0-.413-.167-.81-.462-1.102s-.696-.457-1.114-.457v0z"/></symbol></svg>